<svg width="486" height="145" viewBox="0 0 486 145" fill="none" xmlns="http://www.w3.org/2000/svg">
<path d="M113.592 47.3384H85.1941C83.5037 35.5038 75.7281 27.3886 59.5006 27.3886C45.3016 27.3886 36.1737 33.475 36.1737 43.9571C36.1737 53.0866 42.9351 57.1441 55.1057 59.511L71.6712 62.8923C97.3647 68.3024 112.578 78.4464 112.578 100.763C112.578 126.461 91.2794 143.706 59.1626 143.706C26.7077 143.706 2.70458 126.461 0 96.3674H28.398C30.4265 109.893 42.597 118.684 60.5148 118.684C74.7139 118.684 82.8276 113.274 82.8276 104.144C82.8276 98.7343 79.785 92.986 65.924 90.281L43.9493 86.2235C17.2417 80.8134 5.40912 67.6262 5.40912 46.6621C5.40912 20.626 26.0315 3.38131 56.796 3.38131C80.123 3.04318 110.55 12.5109 113.592 47.3384ZM233.27 141.001H208.928L191.687 88.5903L174.107 141.001H150.104L115.621 45.9858H145.033L162.613 98.7343L180.53 45.9858H203.181L221.099 99.0724L238.679 45.9858H268.091L233.27 141.001ZM369.513 93.6623C369.513 122.742 348.214 144.044 319.14 144.044C289.728 144.044 268.091 122.742 268.091 93.6623C268.091 64.9212 289.728 44.2951 319.14 44.2951C347.876 43.957 369.513 64.9212 369.513 93.6623ZM342.129 93.6623C342.129 79.4608 333.001 68.6406 318.802 68.6406C304.265 68.6406 295.137 79.4608 295.137 93.6623C295.137 107.864 304.603 119.36 318.802 119.36C333.001 119.36 342.129 107.864 342.129 93.6623ZM485.471 93.3242C485.471 121.389 464.511 142.691 438.479 142.691C427.661 142.691 418.871 139.986 411.433 135.253V140.663H384.05V0H411.433V51.3959C418.871 46.6621 427.661 43.9571 438.479 43.9571C464.511 43.9571 485.471 65.9355 485.471 93.3242ZM458.426 93.3242C458.426 79.4608 448.283 67.2881 433.746 67.2881C425.632 67.2881 417.519 69.9931 411.433 78.1083V108.54C417.519 116.993 425.632 119.698 433.746 119.698C448.283 119.698 458.426 107.526 458.426 93.3242Z" fill="url(#paint0_linear_898_61)"/>
<defs>
<linearGradient id="paint0_linear_898_61" x1="0.520293" y1="72.0219" x2="485.627" y2="72.0219" gradientUnits="userSpaceOnUse">
<stop stop-color="#3E85C6"/>
<stop offset="1" stop-color="#5AC7F2"/>
</linearGradient>
</defs>
</svg>
